<?xml version="1.0" encoding="UTF-8" standalone="no"?>
<!DOCTYPE svg PUBLIC "-//W3C//DTD SVG 1.1//EN" "http://www.w3.org/Graphics/SVG/1.1/DTD/svg11.dtd">
<svg width="100%" height="100%" viewBox="0 0 27 27" version="1.1" xmlns="http://www.w3.org/2000/svg" xmlns:xlink="http://www.w3.org/1999/xlink" xml:space="preserve" xmlns:serif="http://www.serif.com/" style="fill-rule:evenodd;clip-rule:evenodd;stroke-linejoin:round;stroke-miterlimit:2;">
    <g id="lo9JKTflniBvPnH8fzs4Q3" transform="matrix(0.3,0,0,0.3,-0.198,-0.324)">
        <g>
            <path id="pedJ2eNGu" d="M24.3,34.8L24.3,32.79L25.59,31.62C27.33,30.06 28.83,28.89 30.9,27.45C31.86,26.79 33.42,25.65 34.35,24.9C35.31,24.15 36.66,23.16 37.38,22.65C40.05,20.79 43.26,18.21 43.41,17.82L43.56,17.4L46.53,17.4L51.75,22.74L57,28.05L57,30L56.73,30C56.58,30 56.4,29.82 56.31,29.61L56.16,29.22L49.02,28.77C45.06,28.56 40.56,28.35 39,28.35L36.15,28.35L35.97,29.67L31.71,31.83C29.37,33 27.18,34.17 26.85,34.38L26.28,34.8L24.3,34.8Z" style="fill:rgb(247,198,33);fill-rule:nonzero;"/>
        </g>
    </g>
    <g id="l10MdbztI1uHg9cR3zxtZyy" transform="matrix(0.3,0,0,0.3,-0.198,-0.324)">
        <g>
            <path id="p11Zylr0Xr" d="M12.69,56.64C12.75,55.92 13.38,52.65 14.04,49.35C14.73,46.05 15.75,40.98 16.32,38.1C16.92,35.22 17.58,31.83 17.85,30.6C18.09,29.37 18.63,26.61 19.05,24.45C19.47,22.32 20.04,19.56 20.28,18.36L20.73,16.2L30.45,16.2L38.04,16.71L45.6,17.25L45.6,18.3L44.46,18.3L44.31,18.72C44.16,19.11 40.95,21.69 38.28,23.55C37.56,24.06 36.21,25.05 35.25,25.8C34.32,26.55 32.67,27.75 31.65,28.5C28.74,30.57 26.64,32.25 25.8,33.15L25.05,33.96L29.25,31.68L27.33,33.45C26.28,34.44 24.93,35.52 24.36,35.85L23.31,36.45L20.7,43.05C18,49.83 17.61,50.79 15.72,55.29L14.64,57.9L12.54,57.9L12.69,56.64Z" style="fill:rgb(238,169,42);fill-rule:nonzero;"/>
        </g>
    </g>
    <g id="l5kG7K64it1w57z2mjMFuU6" transform="matrix(0.3,0,0,0.3,-0.198,-0.324)">
        <g>
            <path id="p8pjbIVVR" d="M29.25,58.8L21.87,36.6L22.47,35.46L25.41,33.81C29.07,31.77 35.4,28.5 35.73,28.5C36.18,28.5 36.03,29.1 35.1,31.47C32.37,38.52 29.4,46.44 29.4,46.74C29.4,46.92 29.61,47.19 29.88,47.34L30.36,47.61L31.11,52.2L31.86,56.76L31.65,57.78L31.47,58.8L29.25,58.8Z" style="fill:rgb(235,146,50);fill-rule:nonzero;"/>
            <path id="pvGS1LMPT" d="M3.66,43.44C4.32,42.24 4.98,41.13 5.1,40.95C5.25,40.8 7.8,36.39 10.83,31.2C13.83,26.01 17.46,19.8 18.84,17.4C20.25,15 22.86,10.5 24.66,7.35C26.46,4.23 28.08,1.53 28.23,1.38L28.5,1.08L32.31,1.92C39.24,3.42 41.16,3.93 50.4,6.81C55.44,8.37 60.24,9.84 61.05,10.08C61.89,10.32 62.91,10.65 63.39,10.83L64.2,11.16L64.2,13.17L61.74,13.29C59.37,13.38 52.77,14.13 39.45,15.72C30.18,16.86 27.36,17.1 24.39,17.1L21.66,17.1L21.3,18.69L20.91,20.25L15.78,28.05C12.93,32.34 10.26,36.39 9.81,37.05C9.36,37.71 7.89,39.9 6.57,41.94L4.14,45.6L2.43,45.6L3.66,43.44Z" style="fill:rgb(235,146,50);fill-rule:nonzero;"/>
        </g>
    </g>
    <g id="l1u6IWD4fKw3GXnc7Tav1LQ" transform="matrix(0.3,0,0,0.3,-0.198,-0.324)">
        <g>
            <path id="pLYDyIX7P" d="M33.57,85.92C30.78,82.77 15.9,65.97 6.48,55.35C3.99,52.56 1.65,49.92 1.29,49.5L0.66,48.72L1.74,46.89C2.34,45.9 3.42,44.25 4.14,43.23L5.43,41.4L4.95,41.4L5.28,41.16C5.61,40.98 6.54,39.69 8.91,36.15C9.36,35.49 12.3,31.08 15.42,26.31C18.54,21.57 21.21,17.7 21.3,17.7L21.48,17.7L20.37,23.34C19.77,26.43 19.11,29.7 18.9,30.6C18.72,31.5 18.39,33.27 18.15,34.5C17.49,37.98 13.86,55.92 13.65,56.55C13.56,56.88 13.89,56.34 14.37,55.35L15.24,53.55L15.09,55.89L14.91,58.26L15.18,58.44C15.54,58.68 28.02,75.39 34.29,84.06L36.63,87.27L36.45,89.19L33.57,85.92Z" style="fill:rgb(225,115,40);fill-rule:nonzero;"/>
            <path id="p3gcPz2Xd" d="M30.03,61.29C29.82,60.66 29.58,59.43 29.49,58.59L29.34,57L30,57L30,57.9L30.6,57.9L30.66,57.39C30.66,57.09 30.69,56.67 30.69,56.49L30.66,56.1L31.74,56.1L31.92,56.79C32.04,57.15 32.19,58.56 32.31,59.94L32.49,62.4L30.45,62.4L30.03,61.29Z" style="fill:rgb(225,115,40);fill-rule:nonzero;"/>
            <path id="pNzC7ea0D" d="M67.35,35.4L66.27,33.9L65.31,33.9L64.32,33.15C63.78,32.73 63.27,32.4 63.18,32.4C63.09,32.4 61.26,31.08 59.1,29.49C56.97,27.87 54.81,26.28 54.33,25.95C53.85,25.62 52.5,24.63 51.33,23.76L49.23,22.17L47.46,20.22L45.72,18.24L38.22,17.67C34.11,17.37 29.73,17.1 28.5,17.07C27.27,17.07 25.92,16.95 25.5,16.83L24.75,16.62L25.5,16.41C25.92,16.29 27.66,16.05 29.4,15.87C31.14,15.69 35.25,15.24 38.55,14.82C51.99,13.2 58.47,12.48 60.9,12.36L63.45,12.24L62.7,11.85L61.95,11.43L63.06,11.4L64.17,11.4L64.47,12.54C65.13,14.97 67.14,23.13 67.8,25.95C68.16,27.6 68.7,29.61 68.94,30.45L69.39,31.92L69.42,33.6L69.45,35.25L68.4,35.34L67.35,35.4Z" style="fill:rgb(225,115,40);fill-rule:nonzero;"/>
        </g>
    </g>
    <g id="l1eanzxPFMCdw2ehENrxa73" transform="matrix(0.3,0,0,0.3,-0.198,-0.324)">
        <g>
            <path id="pBICaeSvN" d="M60.75,48.9L61.32,48.27L60.45,45.06C58.02,35.76 57.27,32.97 56.76,31.11L56.19,29.1L53.22,26.01C51.57,24.33 49.89,22.65 49.41,22.26C48.96,21.87 48.6,21.42 48.6,21.27L48.6,21L49.59,21L51.42,22.23C52.41,22.92 53.67,23.85 54.15,24.3C54.66,24.75 55.38,25.29 55.8,25.5C56.22,25.74 58.2,27.15 60.21,28.71C62.25,30.24 63.96,31.5 64.08,31.5C64.17,31.5 64.68,31.83 65.22,32.25L66.21,33L67.17,33L67.74,33.75L68.31,34.47L68.49,34.29L68.7,34.11L68.52,33.39L68.31,32.64L68.97,33.06L69.6,33.45L69.6,35.88L67.5,39.78C66.33,41.91 64.71,44.97 63.87,46.59L62.34,49.5L60.21,49.5L60.75,48.9Z" style="fill:rgb(220,103,52);fill-rule:nonzero;"/>
        </g>
    </g>
    <g id="lyEmfP785Cj1De2VWWVl87" transform="matrix(0.3,0,0,0.3,-0.198,-0.324)">
        <g>
            <path id="p1AIuGWE9P" d="M47.55,78.78C46.68,78.21 43.5,76.41 37.5,73.02C34.59,71.37 31.83,69.81 31.35,69.54C30.84,69.27 29.7,68.64 28.8,68.16C27.9,67.68 25.89,66.54 24.39,65.67C22.86,64.77 20.22,63.27 18.51,62.34L15.42,60.63L14.85,59.94C14.52,59.55 14.07,59.01 13.86,58.74L13.47,58.23L13.89,56.94C14.16,56.22 14.85,54.45 15.45,52.95C16.08,51.48 17.07,48.96 17.7,47.4C18.3,45.84 19.62,42.57 20.58,40.11L22.35,35.7L22.59,35.79L22.83,35.85L25.83,44.85C27.48,49.8 29.22,55.08 29.7,56.55C30.18,58.05 30.78,59.79 31.02,60.45L31.47,61.65L31.5,61.14C31.5,60.87 31.02,57.87 30.45,54.48C29.88,51.06 29.4,48.03 29.4,47.7L29.4,47.07L29.94,47.37C30.21,47.52 32.28,49.17 34.5,51.03C36.72,52.86 39.9,55.47 41.52,56.79L44.49,59.19L46.11,58.59L48.48,58.98C49.8,59.22 52.41,59.64 54.3,59.97C56.19,60.3 58.38,60.66 59.19,60.75L60.6,60.93L60.6,62.91L52.29,63.09C47.7,63.21 41.85,63.3 39.3,63.3L34.65,63.3L36.3,64.74C37.2,65.52 39.36,67.44 41.1,69C42.84,70.56 45.57,72.99 47.19,74.4L50.1,76.92L50.1,79.2L49.14,79.17L48.15,79.17L47.55,78.78Z" style="fill:rgb(223,79,42);fill-rule:nonzero;"/>
        </g>
    </g>
    <g id="l3fYHq7mgkOsvB2eIw3nCGA" transform="matrix(0.3,0,0,0.3,-0.198,-0.324)">
        <g>
            <path id="pXLFaU865" d="M79.2,50.04C79.2,49.83 78.66,48.54 78,47.16C77.34,45.78 76.8,44.61 76.8,44.55C76.8,44.49 76.14,43.02 75.3,41.28C74.49,39.54 73.8,38.04 73.8,37.98C73.8,37.89 72.81,35.7 71.58,33.09C70.38,30.48 68.37,26.13 67.11,23.4L64.86,18.45L64.05,15.24L63.21,12.03L62.43,11.73C62.01,11.55 60.99,11.22 60.15,10.98C59.34,10.74 54.27,9.21 48.93,7.53C43.56,5.88 39.15,4.5 39.06,4.5C39,4.5 39.09,4.29 39.3,4.05L39.69,3.57L40.62,3.75C41.58,3.96 42.72,4.2 48.6,5.52C50.49,5.94 54.9,6.9 58.35,7.65C61.83,8.4 65.19,9.12 65.85,9.27C67.35,9.63 72.81,10.83 77.55,11.85C79.53,12.27 81.36,12.69 81.63,12.78L82.08,12.9L82.47,16.89L82.83,20.85L82.5,27.9C82.14,35.73 81.63,48.3 81.6,49.59L81.6,50.4L79.2,50.4L79.2,50.04Z" style="fill:rgb(189,56,39);fill-rule:nonzero;"/>
        </g>
    </g>
    <g id="l6GIdn6fg1V2A6AdsYPDbMy" transform="matrix(0.3,0,0,0.3,-0.198,-0.324)">
        <g>
            <path id="p1AniOHn0b" d="M36.51,89.13C36.12,88.71 34.74,86.88 33.45,85.05C30.81,81.39 25.53,74.22 18.99,65.49C16.62,62.34 14.61,59.52 14.49,59.22L14.31,58.71L14.76,58.89C15.21,59.04 19.59,61.5 25.17,64.71C28.32,66.51 31.11,68.07 33.45,69.3C34.44,69.84 36.48,70.98 37.95,71.85C39.45,72.72 41.73,74.04 43.05,74.76C44.37,75.51 46.29,76.59 47.34,77.19C48.36,77.79 49.2,78.18 49.2,78.06C49.2,77.94 48.57,77.28 47.79,76.59L46.35,75.33L48.36,76.35L50.37,77.34L52.26,76.77C53.31,76.44 55.29,75.84 56.7,75.48C61.71,74.1 67.11,72.54 70.2,71.55C71.94,71.01 75.18,70.05 77.4,69.42L81.45,68.28L83.37,68.16L85.26,68.04L85.14,68.46L84.99,68.85L75.54,73.05C70.32,75.36 65.67,77.4 65.22,77.61C62.91,78.57 61.53,79.17 60.3,79.74C59.55,80.07 54.78,82.2 49.65,84.45C44.55,86.73 40.08,88.71 39.75,88.89C39.42,89.07 38.73,89.4 38.19,89.58L37.23,89.91L36.51,89.13Z" style="fill:rgb(188,30,40);fill-rule:nonzero;"/>
        </g>
    </g>
    <g id="l18ETfDaVBAtuRnSNQ8fPwb" transform="matrix(0.3,0,0,0.3,-0.198,-0.324)">
        <g>
            <path id="pmm8Uwyri" d="M49.8,78.57L49.8,78.27L49.44,78.48L49.11,78.69L49.47,78.09L46.41,75.42C44.73,73.95 42,71.52 40.35,70.05C38.7,68.55 36.21,66.33 34.8,65.13C33.39,63.9 32.22,62.79 32.16,62.64L32.04,62.4L39.66,62.37C43.83,62.34 50.07,62.22 53.55,62.13L59.85,61.95L58.35,61.71C57.54,61.59 55.38,61.23 53.55,60.9C51.75,60.57 49.23,60.15 48,59.97C46.77,59.79 45.57,59.52 45.33,59.4L44.94,59.19L49.98,55.92C52.77,54.12 56.49,51.69 58.26,50.55L61.5,48.45L62.58,46.35C63.18,45.21 64.5,42.78 65.49,41.01L67.26,37.77L67.62,37.89L67.95,38.01L68.04,39.21L68.13,40.44L67.53,41.73C67.23,42.45 66.72,44.07 66.45,45.3C65.76,48.48 65.49,49.53 65.13,50.55C63.6,54.93 62.73,57.57 62.64,58.23L62.49,58.98L64.02,58.38C65.37,57.81 66.54,57.18 70.02,55.05C70.56,54.72 71.52,54.06 72.12,53.58L73.26,52.74L74.79,52.17L76.35,51.6L78.3,51.6L78.3,52.89L78.27,54.15L74.49,57.6C69.66,62.01 66.75,64.74 62.25,69.03C60.27,70.92 57.33,73.62 55.71,75.06L52.74,77.7L51.39,78.3C49.8,78.99 49.8,78.99 49.8,78.57Z" style="fill:rgb(165,28,35);fill-rule:nonzero;"/>
        </g>
    </g>
    <g id="l4O65ZtvHv1XNbU99vAqlYP" transform="matrix(0.3,0,0,0.3,-0.198,-0.324)">
        <g>
            <path id="pSnU0I7l2" d="M60.39,61.32L60,61.14L60,60.33L61.47,58.86L61.65,57.72C61.83,56.73 62.58,54.42 64.23,49.65C64.59,48.63 64.86,47.58 65.55,44.4C65.82,43.17 66.33,41.58 66.63,40.86L67.23,39.54L66.87,38.4L67.83,36.6L68.76,34.83L68.58,33.69C68.46,33.06 68.19,31.95 67.98,31.2C67.77,30.45 67.26,28.5 66.9,26.85C66.51,25.2 65.67,21.78 65.04,19.26C63.75,14.13 63.81,14.4 64.14,14.4L64.41,14.4L64.95,15.69C65.82,17.67 70.35,27.6 72.45,32.1C73.47,34.32 74.67,36.96 75.09,37.95C75.51,38.94 76.26,40.59 76.77,41.61C77.28,42.63 77.7,43.53 77.7,43.62C77.7,43.71 78.24,44.88 78.9,46.26C79.56,47.64 80.1,48.93 80.1,49.14L80.1,49.5L80.7,49.5L80.73,48.54L80.76,47.55L80.91,48.09L81.03,48.6L81.6,48.6L81.6,51.09L80.13,52.53L78.69,54L76.8,54L77.16,53.4L77.52,52.83L77.37,52.68L77.22,52.5L74.16,53.64L72.81,54.63C72.06,55.2 71.07,55.86 70.59,56.16C70.14,56.43 69,57.12 68.07,57.69C67.17,58.26 65.91,58.89 65.28,59.1L64.14,59.46L63.18,60.3L62.22,61.17L61.47,61.32L60.75,61.47L60.39,61.32Z" style="fill:rgb(144,23,29);fill-rule:nonzero;"/>
        </g>
    </g>
    <g id="l2VNeJr2GO2ITrQ2vlpL7P6" transform="matrix(0.3,0,0,0.3,-0.198,-0.324)">
        <g>
            <path id="p19um6I7KG" d="M50.88,77.88C50.97,77.67 52.41,76.26 54.09,74.79C55.77,73.32 58.89,70.44 61.05,68.4C66.63,63.09 69.27,60.63 73.8,56.55C75.99,54.57 78.45,52.35 79.2,51.6L80.64,50.25L80.82,45.15C80.94,42.36 81.15,37.35 81.3,34.05C81.45,30.75 81.66,25.86 81.78,23.16L81.99,18.27L82.65,18.51L82.89,21.03C83.01,22.41 83.31,25.59 83.58,28.05C83.85,30.54 84.18,33.96 84.3,35.7C84.45,37.44 84.78,40.74 85.02,43.05C85.29,45.36 85.77,50.01 86.1,53.4C86.43,56.79 86.85,61.02 87.03,62.82C87.18,64.65 87.42,66.45 87.48,66.9L87.66,67.68L86.49,68.22L85.35,68.76L83.85,69C82.08,69.27 75.57,71.01 71.1,72.45C68.01,73.44 62.19,75.12 58.05,76.23C56.91,76.56 54.84,77.16 53.52,77.55C52.17,77.97 51,78.3 50.88,78.3L50.73,78.3L50.88,77.88Z" style="fill:rgb(116,20,24);fill-rule:nonzero;"/>
        </g>
    </g>
</svg>
