<?xml version="1.0" encoding="UTF-8" standalone="no"?>
<!DOCTYPE svg PUBLIC "-//W3C//DTD SVG 1.1//EN" "http://www.w3.org/Graphics/SVG/1.1/DTD/svg11.dtd">
<svg width="100%" height="100%" viewBox="0 0 73 91" version="1.1" xmlns="http://www.w3.org/2000/svg" xmlns:xlink="http://www.w3.org/1999/xlink" xml:space="preserve" xmlns:serif="http://www.serif.com/" style="fill-rule:evenodd;clip-rule:evenodd;stroke-linejoin:round;stroke-miterlimit:2;">
    <g transform="matrix(1,0,0,1,-122.57,-13.5009)">
        <rect x="145.24" y="87.96" width="7.91" height="6.27" style="fill:rgb(212,166,13);"/>
    </g>
    <g transform="matrix(1,0,0,1,-122.57,-13.5009)">
        <rect x="163.15" y="87.96" width="7.91" height="6.27" style="fill:rgb(212,166,13);"/>
    </g>
    <g transform="matrix(1,0,0,1,-122.57,-13.5009)">
        <path d="M166.44,75.47C165.354,74.568 164.114,73.87 162.78,73.41L153.14,73.41C151.861,73.868 150.688,74.578 149.69,75.5C147.891,77.163 146.874,79.51 146.89,81.96L146.89,91.62L151.81,91.62L151.81,82C151.81,79.32 154.1,77.67 157.97,77.53C162.97,77.72 164.68,80.43 164.68,81.68L164.68,91.68L169.6,91.68L169.6,81.68C169.488,79.265 168.335,77.013 166.44,75.51" style="fill:rgb(212,166,13);fill-rule:nonzero;"/>
    </g>
    <g transform="matrix(1,0,0,1,-122.57,-13.5009)">
        <rect x="163.24" y="87.96" width="7.91" height="6.27" style="fill:rgb(212,166,13);"/>
    </g>
    <g transform="matrix(1,0,0,1,-122.57,-13.5009)">
        <rect x="127.56" y="87.96" width="7.91" height="6.27" style="fill:rgb(212,166,13);"/>
    </g>
    <g transform="matrix(1,0,0,1,-122.57,-13.5009)">
        <rect x="145.47" y="87.96" width="7.91" height="6.27" style="fill:rgb(212,166,13);"/>
    </g>
    <g transform="matrix(1,0,0,1,-122.57,-13.5009)">
        <path d="M148.75,75.47C147.668,74.568 146.431,73.87 145.1,73.41L135.46,73.41C134.178,73.867 133.001,74.578 132,75.5C130.195,77.176 129.178,79.537 129.2,82L129.2,91.66L134.13,91.66L134.13,82C134.13,79.32 136.42,77.67 140.28,77.53C145.28,77.72 146.99,80.43 146.99,81.68L146.99,91.68L151.92,91.68L151.92,81.68C151.808,79.262 150.65,77.009 148.75,75.51" style="fill:rgb(212,166,13);fill-rule:nonzero;"/>
    </g>
    <g transform="matrix(1,0,0,1,-122.57,-13.5009)">
        <rect x="145.39" y="87.96" width="7.91" height="6.27" style="fill:rgb(212,166,13);"/>
    </g>
    <g transform="matrix(1,0,0,1,-122.57,-13.5009)">
        <rect x="181.22" y="87.96" width="7.91" height="6.27" style="fill:rgb(212,166,13);"/>
    </g>
    <g transform="matrix(1,0,0,1,-122.57,-13.5009)">
        <path d="M184.27,75.47C183.184,74.568 181.944,73.87 180.61,73.41L171,73.41C169.721,73.868 168.548,74.578 167.55,75.5C165.751,77.163 164.734,79.51 164.75,81.96L164.75,91.62L169.67,91.62L169.67,82C169.67,79.32 171.96,77.67 175.83,77.53C180.83,77.72 182.54,80.43 182.54,81.68L182.54,91.68L187.47,91.68L187.47,81.68C187.354,79.263 186.197,77.011 184.3,75.51" style="fill:rgb(212,166,13);fill-rule:nonzero;"/>
    </g>
    <g transform="matrix(1,0,0,1,-122.57,-13.5009)">
        <path d="M189.18,73.41C187.899,73.87 186.723,74.58 185.72,75.5C183.918,77.177 182.904,79.538 182.93,82L182.93,91.66L187.85,91.66L187.85,82C187.85,79.37 190.07,77.73 193.85,77.54L193.85,73.41L189.18,73.41Z" style="fill:rgb(212,166,13);fill-rule:nonzero;"/>
    </g>
    <g transform="matrix(1,0,0,1,-122.57,-13.5009)">
        <path d="M130.77,75.47C129.686,74.566 128.445,73.868 127.11,73.41L123.11,73.41L123.11,77.55C127.45,78 128.96,80.46 128.96,81.64L128.96,91.64L133.89,91.64L133.89,81.64C133.774,79.223 132.617,76.971 130.72,75.47" style="fill:rgb(212,166,13);fill-rule:nonzero;"/>
    </g>
    <g transform="matrix(1,0,0,1,-122.57,-13.5009)">
        <rect x="122.94" y="73.04" width="71.03" height="4.48" style="fill:rgb(212,166,13);"/>
    </g>
    <g transform="matrix(1,0,0,1,-122.57,-13.5009)">
        <path d="M128.36,19.06L124.42,19.06L124.42,22.71L128.81,22.71L128.81,23.8L123.11,23.8L123.11,13.68L128.58,13.68L128.58,14.77L124.42,14.77L124.42,17.97L128.36,17.97L128.36,19.06Z" style="fill:rgb(212,166,13);fill-rule:nonzero;"/>
    </g>
    <g transform="matrix(1,0,0,1,-122.57,-13.5009)">
        <path d="M133.1,22.21C133.811,22.634 134.622,22.862 135.45,22.87C136.78,22.87 137.57,22.17 137.57,21.14C137.57,20.11 137.03,19.66 135.66,19.14C134,18.55 133,17.69 133,16.26C133,14.68 134.31,13.51 136.28,13.51C137.057,13.482 137.829,13.654 138.52,14.01L138.16,15.07C137.566,14.752 136.903,14.588 136.23,14.59C134.85,14.59 134.33,15.42 134.33,16.11C134.33,17.06 134.94,17.52 136.33,18.06C138.04,18.72 138.91,19.55 138.91,21.06C138.91,22.57 137.75,24 135.36,24C134.456,24.013 133.564,23.793 132.77,23.36L133.1,22.21Z" style="fill:rgb(212,166,13);fill-rule:nonzero;"/>
    </g>
    <g transform="matrix(1,0,0,1,-122.57,-13.5009)">
        <path d="M150.55,23.47C149.7,23.817 148.787,23.98 147.87,23.95C147.774,23.956 147.679,23.959 147.583,23.959C144.988,23.959 142.853,21.824 142.853,19.229C142.853,19.096 142.859,18.963 142.87,18.83C142.863,18.72 142.859,18.611 142.859,18.501C142.859,15.758 145.116,13.501 147.859,13.501C147.96,13.501 148.06,13.504 148.16,13.51C148.984,13.475 149.805,13.629 150.56,13.96L150.25,15C149.606,14.712 148.906,14.568 148.2,14.58C145.83,14.58 144.25,16.1 144.25,18.76C144.25,21.23 145.68,22.83 148.14,22.83C148.875,22.838 149.603,22.695 150.28,22.41L150.55,23.47Z" style="fill:rgb(212,166,13);fill-rule:nonzero;"/>
    </g>
    <g transform="matrix(1,0,0,1,-122.57,-13.5009)">
        <path d="M156.27,13.68L156.27,19.68C156.27,21.95 157.27,22.91 158.63,22.91C160.13,22.91 161.09,21.91 161.09,19.68L161.09,13.68L162.42,13.68L162.42,19.58C162.42,22.69 160.78,23.97 158.59,23.97C156.4,23.97 155,22.78 155,19.64L155,13.64L156.27,13.68Z" style="fill:rgb(212,166,13);fill-rule:nonzero;"/>
    </g>
    <g transform="matrix(1,0,0,1,-122.57,-13.5009)">
        <path d="M172.71,19.06L168.77,19.06L168.77,22.71L173.16,22.71L173.16,23.8L167.47,23.8L167.47,13.68L172.93,13.68L172.93,14.77L168.77,14.77L168.77,17.97L172.71,17.97L172.71,19.06Z" style="fill:rgb(212,166,13);fill-rule:nonzero;"/>
    </g>
    <g transform="matrix(1,0,0,1,-122.57,-13.5009)">
        <path d="M177.64,13.68L178.94,13.68L178.94,22.71L183.27,22.71L183.27,23.8L177.64,23.8L177.64,13.68Z" style="fill:rgb(212,166,13);fill-rule:nonzero;"/>
    </g>
    <g transform="matrix(1,0,0,1,-122.57,-13.5009)">
        <path d="M192.46,19.6L191.46,16.68C191.24,16.02 191.09,15.42 190.94,14.83C190.79,15.44 190.62,16.05 190.43,16.67L189.43,19.6L192.46,19.6ZM189.14,20.6L188.14,23.78L186.79,23.78L190.23,13.66L191.81,13.66L195.26,23.78L193.87,23.78L192.78,20.6L189.14,20.6Z" style="fill:rgb(212,166,13);fill-rule:nonzero;"/>
    </g>
    <g transform="matrix(1,0,0,1,-122.57,-13.5009)">
        <path d="M123.11,38.47L123.11,28.35L124.54,28.35L127.79,33.47C128.463,34.527 129.067,35.626 129.6,36.76C129.48,35.41 129.45,34.17 129.45,32.6L129.45,28.35L130.69,28.35L130.69,38.47L129.36,38.47L126.15,33.34C125.464,32.264 124.843,31.149 124.29,30L124.24,30C124.32,31.28 124.35,32.5 124.35,34.18L124.35,38.5L123.11,38.47Z" style="fill:rgb(212,166,13);fill-rule:nonzero;"/>
    </g>
    <g transform="matrix(1,0,0,1,-122.57,-13.5009)">
        <path d="M138.78,34.27L137.78,31.35C137.56,30.69 137.41,30.09 137.26,29.51C137.11,30.11 136.94,30.72 136.74,31.34L135.74,34.27L138.78,34.27ZM135.46,35.27L134.41,38.45L133.06,38.45L136.5,28.33L138.08,28.33L141.53,38.45L140.13,38.45L139.05,35.27L135.46,35.27Z" style="fill:rgb(212,166,13);fill-rule:nonzero;"/>
    </g>
    <g transform="matrix(1,0,0,1,-122.57,-13.5009)">
        <path d="M150.7,38.14C149.85,38.487 148.937,38.65 148.02,38.62C147.924,38.626 147.829,38.629 147.733,38.629C145.138,38.629 143.003,36.494 143.003,33.899C143.003,33.766 143.009,33.633 143.02,33.5C143.013,33.39 143.009,33.281 143.009,33.171C143.009,30.428 145.266,28.171 148.009,28.171C148.11,28.171 148.21,28.174 148.31,28.18C149.134,28.145 149.955,28.299 150.71,28.63L150.4,29.7C149.756,29.412 149.056,29.268 148.35,29.28C145.98,29.28 144.4,30.8 144.4,33.46C144.4,35.94 145.83,37.53 148.29,37.53C149.025,37.538 149.753,37.395 150.43,37.11L150.7,38.14Z" style="fill:rgb(212,166,13);fill-rule:nonzero;"/>
    </g>
    <g transform="matrix(1,0,0,1,-122.57,-13.5009)">
        <rect x="153.16" y="28.35" width="1.31" height="10.12" style="fill:rgb(212,166,13);"/>
    </g>
    <g transform="matrix(1,0,0,1,-122.57,-13.5009)">
        <path d="M158.38,33.47C158.38,35.63 159.55,37.57 161.61,37.57C163.67,37.57 164.85,35.67 164.85,33.37C164.85,31.37 163.85,29.25 161.62,29.25C159.39,29.25 158.38,31.25 158.38,33.47M166.23,33.31C166.23,36.79 164.11,38.64 161.53,38.64C158.95,38.64 157,36.57 157,33.5C157,30.43 159,28.18 161.7,28.18C164.4,28.18 166.25,30.3 166.25,33.31" style="fill:rgb(212,166,13);fill-rule:nonzero;"/>
    </g>
    <g transform="matrix(1,0,0,1,-122.57,-13.5009)">
        <path d="M168.76,38.47L168.76,28.35L170.18,28.35L173.43,33.47C174.106,34.527 174.714,35.626 175.25,36.76C175.13,35.41 175.1,34.17 175.1,32.6L175.1,28.35L176.33,28.35L176.33,38.47L175,38.47L171.78,33.34C171.102,32.262 170.484,31.147 169.93,30L169.88,30C169.96,31.28 169.99,32.5 169.99,34.18L169.99,38.5L168.76,38.47Z" style="fill:rgb(212,166,13);fill-rule:nonzero;"/>
    </g>
    <g transform="matrix(1,0,0,1,-122.57,-13.5009)">
        <path d="M184.43,34.27L183.43,31.35C183.21,30.69 183.06,30.09 182.91,29.51C182.757,30.11 182.587,30.72 182.4,31.34L181.4,34.27L184.43,34.27ZM181.11,35.27L180.06,38.45L178.7,38.45L182.14,28.33L183.72,28.33L187.18,38.45L185.78,38.45L184.7,35.27L181.11,35.27Z" style="fill:rgb(212,166,13);fill-rule:nonzero;"/>
    </g>
    <g transform="matrix(1,0,0,1,-122.57,-13.5009)">
        <path d="M189.49,28.35L190.8,28.35L190.8,37.38L195.12,37.38L195.12,38.48L189.49,38.48L189.49,28.35Z" style="fill:rgb(212,166,13);fill-rule:nonzero;"/>
    </g>
    <g transform="matrix(1,0,0,1,-122.57,-13.5009)">
        <path d="M123.25,52.6C123.483,52.618 123.717,52.618 123.95,52.6C124.039,52.612 124.128,52.618 124.218,52.618C125.315,52.618 126.218,51.715 126.218,50.618C126.218,50.528 126.212,50.439 126.2,50.35C126.203,50.304 126.205,50.258 126.205,50.211C126.205,49.18 125.356,48.331 124.325,48.331C124.236,48.331 124.148,48.337 124.06,48.35C123.788,48.345 123.517,48.368 123.25,48.42L123.25,52.6ZM122.57,47.92C123.05,47.844 123.534,47.807 124.02,47.81C124.795,47.743 125.566,47.98 126.17,48.47C126.687,48.962 126.961,49.658 126.92,50.37C126.953,51.13 126.679,51.873 126.16,52.43C125.506,52.981 124.662,53.254 123.81,53.19C123.396,53.194 122.982,53.173 122.57,53.13L122.57,47.92Z" style="fill:rgb(212,166,13);fill-rule:nonzero;"/>
    </g>
    <g transform="matrix(1,0,0,1,-122.57,-13.5009)">
        <path d="M130.39,50.66L128.33,50.66L128.33,52.57L130.63,52.57L130.63,53.15L127.65,53.15L127.65,47.84L130.51,47.84L130.51,48.42L128.33,48.42L128.33,50.09L130.39,50.09L130.39,50.66Z" style="fill:rgb(212,166,13);fill-rule:nonzero;"/>
    </g>
    <g transform="matrix(1,0,0,1,-122.57,-13.5009)">
        <path d="M139.2,48.4L135.27,48.4L135.27,52.05L139.65,52.05L139.65,53.15L133.96,53.15L133.96,43.02L139.43,43.02L139.43,44.12L135.27,44.12L135.27,47.32L139.2,47.32L139.2,48.4Z" style="fill:rgb(212,166,13);fill-rule:nonzero;"/>
    </g>
    <g transform="matrix(1,0,0,1,-122.57,-13.5009)">
        <path d="M141.17,51.55C141.881,51.975 142.692,52.203 143.52,52.21C144.85,52.21 145.63,51.51 145.63,50.49C145.63,49.47 145.09,49 143.73,48.49C142.07,47.91 141.05,47.05 141.05,45.62C141.05,44.19 142.36,42.88 144.33,42.88C145.102,42.855 145.869,43.024 146.56,43.37L146.2,44.44C145.61,44.122 144.95,43.957 144.28,43.96C142.9,43.96 142.37,44.78 142.37,45.47C142.37,46.42 142.99,46.89 144.37,47.47C146.08,48.13 146.95,48.95 146.95,50.47C146.95,51.99 145.79,53.39 143.4,53.39C142.498,53.399 141.61,53.175 140.82,52.74L141.17,51.55Z" style="fill:rgb(212,166,13);fill-rule:nonzero;"/>
    </g>
    <g transform="matrix(1,0,0,1,-122.57,-13.5009)">
        <path d="M150.68,44.13L147.6,44.13L147.6,43.02L155.1,43.02L155.1,44.13L152,44.13L152,53.15L150.68,53.15L150.68,44.13Z" style="fill:rgb(212,166,13);fill-rule:nonzero;"/>
    </g>
    <g transform="matrix(1,0,0,1,-122.57,-13.5009)">
        <path d="M157.53,43L157.53,49C157.53,51.27 158.53,52.24 159.89,52.24C161.39,52.24 162.36,51.24 162.36,49L162.36,43L163.68,43L163.68,48.9C163.68,52.01 162.04,53.29 159.85,53.29C157.66,53.29 156.21,52.1 156.21,48.97L156.21,43L157.53,43Z" style="fill:rgb(212,166,13);fill-rule:nonzero;"/>
    </g>
    <g transform="matrix(1,0,0,1,-122.57,-13.5009)">
        <path d="M167.25,52.11C167.691,52.168 168.136,52.192 168.58,52.18C171.37,52.18 172.89,50.62 172.89,47.89C172.89,45.5 171.55,43.98 168.79,43.98C168.273,43.971 167.757,44.018 167.25,44.12L167.25,52.11ZM165.95,43.11C166.87,42.971 167.799,42.901 168.73,42.9C170.207,42.781 171.675,43.232 172.83,44.16C173.812,45.103 174.331,46.431 174.25,47.79C174.319,49.245 173.796,50.667 172.8,51.73C171.556,52.784 169.946,53.309 168.32,53.19C167.528,53.192 166.737,53.152 165.95,53.07L165.95,43.11Z" style="fill:rgb(212,166,13);fill-rule:nonzero;"/>
    </g>
    <g transform="matrix(1,0,0,1,-122.57,-13.5009)">
        <rect x="175.95" y="43.02" width="1.31" height="10.12" style="fill:rgb(212,166,13);"/>
    </g>
    <g transform="matrix(1,0,0,1,-122.57,-13.5009)">
        <path d="M180.34,48.14C180.34,50.31 181.51,52.24 183.57,52.24C185.63,52.24 186.81,50.34 186.81,48.04C186.81,46.04 185.76,43.92 183.58,43.92C181.4,43.92 180.34,45.92 180.34,48.14M188.2,48C188.2,51.48 186.08,53.33 183.49,53.33C180.9,53.33 178.94,51.26 178.94,48.19C178.94,45.12 180.94,42.88 183.64,42.88C186.34,42.88 188.2,45 188.2,48" style="fill:rgb(212,166,13);fill-rule:nonzero;"/>
    </g>
    <g transform="matrix(1,0,0,1,-122.57,-13.5009)">
        <path d="M189.72,51.55C190.427,51.975 191.235,52.203 192.06,52.21C193.4,52.21 194.18,51.51 194.18,50.49C194.18,49.47 193.64,49 192.27,48.49C190.62,47.91 189.6,47.05 189.6,45.62C189.6,44.19 190.9,42.88 192.87,42.88C193.646,42.855 194.416,43.023 195.11,43.37L194.75,44.44C194.156,44.122 193.493,43.958 192.82,43.96C191.44,43.96 190.92,44.78 190.92,45.47C190.92,46.42 191.53,46.89 192.92,47.47C194.63,48.13 195.5,48.95 195.5,50.47C195.5,51.99 194.36,53.3 192,53.3C191.095,53.309 190.203,53.085 189.41,52.65L189.72,51.55Z" style="fill:rgb(212,166,13);fill-rule:nonzero;"/>
    </g>
    <g transform="matrix(1,0,0,1,-122.57,-13.5009)">
        <path d="M122.93,66.22C123.638,66.652 124.451,66.884 125.28,66.89C126.61,66.89 127.39,66.18 127.39,65.16C127.39,64.14 126.85,63.67 125.49,63.16C123.83,62.57 122.81,61.71 122.81,60.29C122.81,58.71 124.12,57.54 126.09,57.54C126.866,57.516 127.635,57.684 128.33,58.03L128,59.09C127.406,58.772 126.743,58.608 126.07,58.61C124.69,58.61 124.16,59.44 124.16,60.13C124.16,61.07 124.78,61.54 126.16,62.08C127.87,62.74 128.74,63.57 128.74,65.08C128.74,66.59 127.57,68 125.19,68C124.285,68.01 123.393,67.786 122.6,67.35L122.93,66.22Z" style="fill:rgb(212,166,13);fill-rule:nonzero;"/>
    </g>
    <g transform="matrix(1,0,0,1,-122.57,-13.5009)">
        <path d="M131.45,57.69L131.45,63.69C131.45,65.95 132.45,66.92 133.81,66.92C135.31,66.92 136.27,65.92 136.27,63.69L136.27,57.69L137.6,57.69L137.6,63.6C137.6,66.71 135.96,67.98 133.77,67.98C131.58,67.98 130.13,66.8 130.13,63.66L130.13,57.66L131.45,57.69Z" style="fill:rgb(212,166,13);fill-rule:nonzero;"/>
    </g>
    <g transform="matrix(1,0,0,1,-122.57,-13.5009)">
        <path d="M140.8,62.69C141.153,62.775 141.517,62.812 141.88,62.8C143.46,62.8 144.42,62.03 144.42,60.64C144.42,59.25 143.47,58.64 142.03,58.64C141.617,58.629 141.204,58.666 140.8,58.75L140.8,62.69ZM139.49,57.81C140.32,57.68 141.16,57.617 142,57.62C143.017,57.543 144.028,57.842 144.84,58.46C145.429,59.004 145.751,59.779 145.72,60.58C145.757,61.375 145.476,62.152 144.94,62.74C144.106,63.518 142.988,63.919 141.85,63.85C141.514,63.86 141.179,63.83 140.85,63.76L140.85,67.82L139.54,67.82L139.49,57.81Z" style="fill:rgb(212,166,13);fill-rule:nonzero;"/>
    </g>
    <g transform="matrix(1,0,0,1,-122.57,-13.5009)">
        <path d="M152.35,63.07L148.41,63.07L148.41,66.72L152.8,66.72L152.8,67.82L147.11,67.82L147.11,57.69L152.57,57.69L152.57,58.79L148.41,58.79L148.41,61.99L152.35,61.99L152.35,63.07Z" style="fill:rgb(212,166,13);fill-rule:nonzero;"/>
    </g>
    <g transform="matrix(1,0,0,1,-122.57,-13.5009)">
        <path d="M155.43,62.44L156.77,62.44C158.16,62.44 159.05,61.67 159.05,60.52C159.05,59.21 158.05,58.64 156.72,58.62C156.287,58.608 155.854,58.648 155.43,58.74L155.43,62.44ZM154.12,57.83C154.948,57.68 155.789,57.61 156.63,57.62C157.675,57.512 158.723,57.805 159.56,58.44C160.091,58.939 160.382,59.642 160.36,60.37C160.395,61.575 159.607,62.661 158.45,63C159.264,63.357 159.831,64.118 159.94,65C160.117,65.948 160.378,66.878 160.72,67.78L159.37,67.78C159.067,66.997 158.839,66.186 158.69,65.36C158.39,63.96 157.85,63.44 156.69,63.36L155.46,63.36L155.46,67.75L154.15,67.75L154.12,57.83Z" style="fill:rgb(212,166,13);fill-rule:nonzero;"/>
    </g>
    <g transform="matrix(1,0,0,1,-122.57,-13.5009)">
        <rect x="161.83" y="57.69" width="1.31" height="10.12" style="fill:rgb(212,166,13);"/>
    </g>
    <g transform="matrix(1,0,0,1,-122.57,-13.5009)">
        <path d="M165.84,62.82C165.84,64.98 167.01,66.92 169.07,66.92C171.13,66.92 172.32,65.01 172.32,62.71C172.32,60.71 171.32,58.59 169.09,58.59C166.86,58.59 165.84,60.59 165.84,62.82M173.7,62.65C173.7,66.14 171.58,67.98 169,67.98C166.42,67.98 164.44,65.91 164.44,62.84C164.44,59.77 166.44,57.53 169.15,57.53C171.86,57.53 173.7,59.65 173.7,62.65" style="fill:rgb(212,166,13);fill-rule:nonzero;"/>
    </g>
    <g transform="matrix(1,0,0,1,-122.57,-13.5009)">
        <path d="M176.33,62.44L177.67,62.44C179.06,62.44 179.95,61.67 179.95,60.52C179.95,59.21 179,58.64 177.62,58.62C177.187,58.608 176.754,58.648 176.33,58.74L176.33,62.44ZM175,57.83C175.828,57.68 176.669,57.61 177.51,57.62C178.555,57.512 179.603,57.805 180.44,58.44C180.971,58.939 181.262,59.642 181.24,60.37C181.278,61.57 180.499,62.653 179.35,63C180.161,63.36 180.727,64.12 180.84,65C181.017,65.948 181.278,66.878 181.62,67.78L180.26,67.78C179.962,66.996 179.738,66.186 179.59,65.36C179.29,63.96 178.75,63.44 177.59,63.36L176.36,63.36L176.36,67.75L175,67.75L175,57.83Z" style="fill:rgb(212,166,13);fill-rule:nonzero;"/>
    </g>
    <g transform="matrix(1,0,0,1,-122.57,-13.5009)">
        <path d="M187.97,63.07L184.04,63.07L184.04,66.72L188.42,66.72L188.42,67.82L182.73,67.82L182.73,57.69L188.2,57.69L188.2,58.79L184.04,58.79L184.04,61.99L187.97,61.99L187.97,63.07Z" style="fill:rgb(212,166,13);fill-rule:nonzero;"/>
    </g>
    <g transform="matrix(1,0,0,1,-122.57,-13.5009)">
        <path d="M189.57,66.22C190.274,66.653 191.083,66.885 191.91,66.89C193.25,66.89 194.03,66.18 194.03,65.16C194.03,64.14 193.49,63.67 192.12,63.16C190.47,62.57 189.45,61.71 189.45,60.29C189.45,58.71 190.75,57.54 192.72,57.54C193.507,57.499 194.291,57.657 195,58L194.64,59.07C194.046,58.752 193.383,58.588 192.71,58.59C191.33,58.59 190.81,59.42 190.81,60.11C190.81,61.05 191.42,61.52 192.81,62.06C194.52,62.72 195.39,63.55 195.39,65.06C195.39,66.57 194.21,68 191.82,68C190.918,68.01 190.029,67.786 189.24,67.35L189.57,66.22Z" style="fill:rgb(212,166,13);fill-rule:nonzero;"/>
    </g>
    <g transform="matrix(1,0,0,1,-122.57,-13.5009)">
        <path d="M124.18,98.66L124.18,101.72C124.18,102.63 124.53,103.09 125.18,103.09C125.83,103.09 126.18,102.65 126.18,101.72L126.18,98.66L127.38,98.66L127.38,101.66C127.38,103.29 126.55,104.07 125.17,104.07C123.79,104.07 123.05,103.33 123.05,101.64L123.05,98.64L124.18,98.66Z" style="fill:rgb(212,166,13);fill-rule:nonzero;"/>
    </g>
    <g transform="matrix(1,0,0,1,-122.57,-13.5009)">
        <path d="M129.05,104L129.05,98.7L130.45,98.7L131.55,100.7C131.882,101.282 132.173,101.887 132.42,102.51C132.344,101.776 132.311,101.038 132.32,100.3L132.32,98.66L133.42,98.66L133.42,104L132.16,104L131.03,102C130.72,101.43 130.37,100.75 130.11,100.13L130.11,104L129.05,104Z" style="fill:rgb(212,166,13);fill-rule:nonzero;"/>
    </g>
    <g transform="matrix(1,0,0,1,-122.57,-13.5009)">
        <rect x="135.19" y="98.66" width="1.2" height="5.3" style="fill:rgb(212,166,13);"/>
    </g>
    <g transform="matrix(1,0,0,1,-122.57,-13.5009)">
        <path d="M139.34,103.06C139.476,103.071 139.614,103.071 139.75,103.06C139.808,103.066 139.866,103.069 139.925,103.069C140.824,103.069 141.565,102.329 141.565,101.429C141.565,101.356 141.56,101.283 141.55,101.21C141.556,101.154 141.559,101.099 141.559,101.043C141.559,100.203 140.869,99.513 140.029,99.513C139.979,99.513 139.93,99.515 139.88,99.52C139.7,99.501 139.52,99.501 139.34,99.52L139.34,103.06ZM138.13,98.73C138.666,98.653 139.208,98.616 139.75,98.62C140.517,98.557 141.283,98.758 141.92,99.19C142.531,99.667 142.869,100.416 142.82,101.19C142.866,101.999 142.542,102.787 141.94,103.33C141.228,103.836 140.362,104.08 139.49,104.02C139.035,104.024 138.581,103.997 138.13,103.94L138.13,98.73Z" style="fill:rgb(212,166,13);fill-rule:nonzero;"/>
    </g>
    <g transform="matrix(1,0,0,1,-122.57,-13.5009)">
        <path d="M146.77,101.71L146.44,100.58C146.34,100.27 146.25,99.87 146.17,99.58C146.09,99.89 146.02,100.3 145.93,100.58L145.61,101.71L146.77,101.71ZM145.42,102.6L145,104L143.8,104L145.42,98.7L147,98.7L148.65,104L147.36,104L146.95,102.64L145.42,102.6Z" style="fill:rgb(212,166,13);fill-rule:nonzero;"/>
    </g>
    <g transform="matrix(1,0,0,1,-122.57,-13.5009)">
        <path d="M151.25,103.06C151.39,103.071 151.53,103.071 151.67,103.06C151.725,103.066 151.78,103.068 151.835,103.068C152.734,103.068 153.475,102.328 153.475,101.428C153.475,101.355 153.47,101.282 153.46,101.21C153.467,101.151 153.47,101.092 153.47,101.033C153.47,100.199 152.784,99.513 151.95,99.513C151.9,99.513 151.85,99.515 151.8,99.52C151.617,99.502 151.433,99.502 151.25,99.52L151.25,103.06ZM150.05,98.73C150.586,98.653 151.128,98.616 151.67,98.62C152.437,98.557 153.203,98.758 153.84,99.19C154.451,99.667 154.789,100.416 154.74,101.19C154.786,101.999 154.462,102.787 153.86,103.33C153.148,103.836 152.282,104.08 151.41,104.02C150.955,104.024 150.501,103.997 150.05,103.94L150.05,98.73Z" style="fill:rgb(212,166,13);fill-rule:nonzero;"/>
    </g>
    <g transform="matrix(1,0,0,1,-122.57,-13.5009)">
        <path d="M163,101.93L163,99.76C162.83,100.43 162.61,101.19 162.41,101.76L161.76,103.83L160.83,103.83L160.26,101.77C160.09,101.15 159.91,100.4 159.78,99.71C159.78,100.42 159.78,101.24 159.69,101.9L159.6,103.9L158.49,103.9L158.83,98.6L160.42,98.6L160.94,100.37C161.11,100.99 161.27,101.65 161.39,102.27C161.54,101.66 161.72,100.95 161.9,100.37L162.46,98.6L164,98.6L164.29,103.9L163.12,103.9L163,101.93Z" style="fill:rgb(212,166,13);fill-rule:nonzero;"/>
    </g>
    <g transform="matrix(1,0,0,1,-122.57,-13.5009)">
        <path d="M166.91,101.33C166.91,102.33 167.39,103.1 168.2,103.1C169.01,103.1 169.47,102.33 169.47,101.3C169.47,100.27 169.01,99.53 168.19,99.53C167.37,99.53 166.91,100.3 166.91,101.33M170.74,101.26C170.749,101.347 170.754,101.434 170.754,101.522C170.754,102.91 169.611,104.052 168.224,104.052C168.192,104.052 168.161,104.051 168.13,104.05L168.099,104.05C166.744,104.05 165.629,102.935 165.629,101.58C165.629,101.503 165.633,101.427 165.64,101.35C165.634,101.28 165.631,101.21 165.631,101.14C165.631,99.735 166.787,98.58 168.191,98.58L168.22,98.58C168.24,98.58 168.259,98.579 168.279,98.579C169.634,98.579 170.749,99.694 170.749,101.049C170.749,101.12 170.746,101.19 170.74,101.26" style="fill:rgb(212,166,13);fill-rule:nonzero;"/>
    </g>
    <g transform="matrix(1,0,0,1,-122.57,-13.5009)">
        <path d="M173.42,101L173.89,101C174.48,101 174.89,100.7 174.89,100.23C174.89,99.76 174.56,99.5 174.01,99.49C173.83,99.476 173.65,99.476 173.47,99.49L173.42,101ZM172.23,98.71C172.757,98.634 173.288,98.598 173.82,98.6C174.424,98.543 175.03,98.691 175.54,99.02C175.868,99.292 176.05,99.704 176.03,100.13C176.024,100.717 175.646,101.24 175.09,101.43C175.473,101.63 175.737,102.003 175.8,102.43C175.917,102.934 176.06,103.431 176.23,103.92L175,103.92C174.842,103.521 174.718,103.11 174.63,102.69C174.49,102.03 174.26,101.85 173.78,101.84L173.42,101.84L173.42,104L172.23,104L172.23,98.71Z" style="fill:rgb(212,166,13);fill-rule:nonzero;"/>
    </g>
    <g transform="matrix(1,0,0,1,-122.57,-13.5009)">
        <path d="M180.75,101.72L178.8,101.72L178.8,102.98L180.98,102.98L180.98,103.96L177.6,103.96L177.6,98.66L180.87,98.66L180.87,99.65L178.8,99.65L178.8,100.75L180.75,100.75L180.75,101.72Z" style="fill:rgb(212,166,13);fill-rule:nonzero;"/>
    </g>
    <g transform="matrix(1,0,0,1,-122.57,-13.5009)">
        <path d="M182.5,98.66L183.71,98.66L183.71,102.96L185.81,102.96L185.81,103.96L182.5,103.96L182.5,98.66Z" style="fill:rgb(212,166,13);fill-rule:nonzero;"/>
    </g>
    <g transform="matrix(1,0,0,1,-122.57,-13.5009)">
        <rect x="187.23" y="98.66" width="1.2" height="5.3" style="fill:rgb(212,166,13);"/>
    </g>
    <g transform="matrix(1,0,0,1,-122.57,-13.5009)">
        <path d="M192.76,101.71L192.42,100.58C192.33,100.27 192.24,99.87 192.16,99.58C192.08,99.89 192,100.3 191.92,100.58L191.6,101.71L192.76,101.71ZM191.41,102.6L191,104L189.76,104L191.38,98.7L193,98.7L194.65,104L193.36,104L192.95,102.64L191.41,102.6Z" style="fill:rgb(212,166,13);fill-rule:nonzero;"/>
    </g>
</svg>
