<?xml version="1.0" encoding="utf-8"?>
<!-- Generator: Adobe Illustrator 27.2.0, SVG Export Plug-In . SVG Version: 6.00 Build 0)  -->
<svg version="1.1" id="Capa_1" xmlns="http://www.w3.org/2000/svg" xmlns:xlink="http://www.w3.org/1999/xlink" x="0px" y="0px"
	 viewBox="0 0 792 612" style="enable-background:new 0 0 792 612;" xml:space="preserve">
<style type="text/css">
	.st0{fill:#FFFFFF;}
	.st1{fill:#BE2026;}
	.st2{fill:#FDEE27;}
	.st3{fill:#F7B519;}
</style>
<g>
	<g>
		<g>
			<path d="M259.6,475.1H254v-57.7h5.7V475.1z"/>
			<path d="M273.6,431.5h5.4v5c1.7-2,3.7-3.5,6-4.4c2.3-1,4.8-1.4,7.8-1.4c3.2,0,6,0.6,8.5,1.8c2.5,1.2,4.5,2.9,5.9,5.1
				c1,1.6,1.7,3.4,2.2,5.5c0.4,2.1,0.7,5.2,0.7,9.3v22.8h-5.5v-24.4c0-5.2-1-8.9-3-11.2c-2-2.3-5.1-3.5-9.5-3.5
				c-2.5,0-4.8,0.5-6.7,1.5c-1.9,1-3.4,2.5-4.5,4.4c-0.7,1.2-1.2,2.5-1.5,4.1c-0.3,1.5-0.4,4.2-0.4,8v21.2h-5.4V431.5z"/>
			<path d="M320.2,461.4h5.7v0.2c0,2.7,0.8,5,2.3,6.8c1.6,1.8,3.5,2.7,5.8,2.7c2.2,0,4-0.7,5.5-2.1c1.5-1.4,2.2-3.1,2.2-5.2
				c0-2.1-0.6-3.8-1.7-5c-1.2-1.3-3.2-2.5-6.3-3.6c-4.8-1.7-8-3.5-9.5-5.3c-1.5-1.8-2.2-4.2-2.2-7.2c0-3.4,1.2-6.3,3.7-8.7
				c2.5-2.4,5.5-3.6,9-3.6c3.7,0,6.7,1.1,8.9,3.2c2.2,2.1,3.4,5.1,3.5,8.8h-6c-0.1-2.1-0.8-3.7-2-4.8c-1.2-1.1-2.8-1.7-4.8-1.7
				c-1.8,0-3.3,0.6-4.6,1.8c-1.2,1.2-1.8,2.8-1.8,4.6c0,1.3,0.3,2.4,0.8,3.3c0.5,0.9,1.3,1.7,2.5,2.4c1.1,0.7,2.6,1.3,4.6,1.9
				c2,0.6,3.4,1.1,4.1,1.4c2.7,1.2,4.7,2.7,6,4.6c1.3,1.9,1.9,4.4,1.9,7.4c0,3.7-1.3,6.9-3.9,9.3c-2.6,2.5-5.9,3.7-10,3.7
				c-4.1,0-7.4-1.3-9.9-4C321.6,469.6,320.3,466,320.2,461.4z"/>
			<path d="M362.4,475.1v-38h-8.3v-5.6h8.3v-14.1h5.6v14.1h8.3v5.6H368v38H362.4z"/>
			<path d="M390.5,426.4h-5.6v-9h5.6V426.4z M384.9,475.1v-43.6h5.6v43.6H384.9z"/>
			<path d="M407.4,475.1v-38h-8.3v-5.6h8.3v-14.1h5.6v14.1h8.3v5.6H413v38H407.4z"/>
			<path d="M429.7,431.5h5.5v23.1c0,6,1,10.2,2.9,12.6c1.9,2.5,5.1,3.7,9.5,3.7c2.5,0,4.7-0.5,6.6-1.5c1.9-1,3.4-2.5,4.6-4.4
				c0.7-1.1,1.1-2.5,1.4-4c0.3-1.5,0.4-4.2,0.4-8.1v-21.4h5.6v43.6h-5.6v-4.7c-1.7,2.1-3.6,3.6-5.7,4.5c-2.1,0.9-4.6,1.4-7.6,1.4
				c-6.3,0-10.8-1.7-13.6-5.1c-2.8-3.4-4.2-9-4.2-16.9V431.5z"/>
			<path d="M483,475.1v-38h-8.3v-5.6h8.3v-14.1h5.6v14.1h8.3v5.6h-8.3v38H483z"/>
			<path d="M503,453.4c0-6.4,2.2-11.9,6.6-16.4c4.4-4.5,9.6-6.8,15.6-6.8c6.3,0,11.7,2.2,16.2,6.7c4.5,4.5,6.7,9.8,6.7,16
				c0,6.5-2.2,12-6.5,16.6c-4.4,4.6-9.6,6.9-15.9,6.9c-6.3,0-11.7-2.3-16-6.8C505.2,465.1,503,459.7,503,453.4z M508.9,453.3
				c0,5,1.6,9.2,4.8,12.6c3.2,3.4,7.2,5.1,11.9,5.1c4.7,0,8.6-1.7,11.8-5.1c3.2-3.4,4.8-7.6,4.8-12.7c0-5.1-1.6-9.4-4.8-12.7
				c-3.2-3.3-7.3-5-12.2-5c-4.4,0-8.2,1.7-11.4,5.1C510.5,444.1,508.9,448.3,508.9,453.3z"/>
			<path d="M622.3,438.4v-9.7v-11.3h5.6v57.7h-5.6v-6.6c-2,2.4-4.4,4.3-7.3,5.7c-2.9,1.4-6,2-9.2,2c-6.3,0-11.6-2.2-15.9-6.7
				c-4.3-4.4-6.5-9.9-6.5-16.3c0-6.4,2.1-11.8,6.4-16.2c4.3-4.4,9.6-6.6,16-6.6c3.4,0,6.6,0.7,9.4,2
				C618,433.9,620.3,435.8,622.3,438.4z M622.5,453.8c0-5-1.6-9.2-4.9-12.7c-3.3-3.5-7.2-5.3-11.6-5.3c-4.6,0-8.5,1.7-11.8,5
				c-3.3,3.3-4.9,7.4-4.9,12.3c0,5.1,1.6,9.4,4.9,12.8c3.3,3.5,7.3,5.2,12,5.2c4.3,0,8.1-1.7,11.4-5.2
				C620.8,462.4,622.5,458.4,622.5,453.8z"/>
			<path d="M683.6,455.1h-39.4c0.3,4.7,2.1,8.6,5.2,11.5c3.1,2.9,7,4.4,11.6,4.4c3.3,0,6.2-0.8,8.8-2.5c2.6-1.7,4.6-4.1,6.1-7.1h6.3
				c-2,4.8-4.8,8.5-8.5,11.1c-3.6,2.6-7.8,3.9-12.6,3.9c-6.3,0-11.7-2.3-16.1-6.8c-4.4-4.5-6.6-10-6.6-16.3c0-6.6,2.1-12.1,6.4-16.5
				c4.3-4.3,9.8-6.5,16.5-6.5c6.6,0,11.9,2.3,16,6.8c4.1,4.5,6.2,10.4,6.2,17.6V455.1z M677.4,450.2c-1.1-4.8-3-8.5-5.8-10.9
				c-2.8-2.5-6.5-3.7-11.1-3.7c-4.2,0-7.8,1.3-10.7,3.9c-2.9,2.6-4.7,6.2-5.4,10.7H677.4z"/>
		</g>
		<g>
			<path d="M254.4,564.1v-57.7h8.4l20,50.2l19.9-50.2h8.4v57.7h-5.4v-51l-20.3,51h-5.1l-20.3-51v51H254.4z"/>
			<path d="M359.2,557.2c-1.7,2.5-4.1,4.5-7.1,5.9c-3,1.4-6.2,2.1-9.6,2.1c-6.4,0-11.7-2.2-16-6.6c-4.3-4.4-6.4-9.8-6.4-16.2
				c0-6.5,2.2-12,6.5-16.4c4.3-4.4,9.8-6.6,16.3-6.6c3.4,0,6.4,0.7,9.2,2.1c2.8,1.4,5.1,3.3,7,5.9v-7h5.5v43.6h-5.5V557.2z
				 M359.2,542c0-4.6-1.6-8.7-5-12.1c-3.3-3.4-7.1-5.2-11.4-5.2c-4.7,0-8.7,1.7-12,5.2c-3.3,3.5-4.9,7.7-4.9,12.8
				c0,4.9,1.6,9,4.9,12.3c3.3,3.3,7.2,5,11.8,5c4.4,0,8.3-1.8,11.6-5.3C357.5,551.2,359.2,547,359.2,542z"/>
			<path d="M383.4,564.1v-38h-8.3v-5.6h8.3v-14.1h5.6v14.1h8.3v5.6H389v38H383.4z"/>
			<path d="M448.6,544.1h-39.4c0.3,4.7,2.1,8.6,5.2,11.5c3.1,2.9,7,4.4,11.6,4.4c3.3,0,6.2-0.8,8.8-2.5c2.6-1.7,4.6-4.1,6.1-7.1h6.3
				c-2,4.8-4.8,8.5-8.5,11.1c-3.6,2.6-7.8,3.9-12.6,3.9c-6.3,0-11.7-2.3-16.1-6.8c-4.4-4.5-6.6-10-6.6-16.3c0-6.6,2.1-12.1,6.4-16.5
				c4.3-4.3,9.8-6.5,16.5-6.5c6.6,0,11.9,2.3,16,6.8c4.1,4.5,6.2,10.4,6.2,17.6V544.1z M442.4,539.2c-1.1-4.8-3-8.5-5.8-10.9
				c-2.8-2.5-6.5-3.7-11.1-3.7c-4.2,0-7.8,1.3-10.7,4c-2.9,2.6-4.7,6.2-5.4,10.7H442.4z"/>
			<path d="M493.3,527.3c1.8-2.5,4-4.4,6.6-5.7c2.6-1.3,5.6-2,8.8-2c5.9,0,10.2,1.8,12.9,5.3c2.7,3.6,4,9.3,4,17.1v22h-5.4V541
				c0-5.8-1-9.9-2.9-12.3c-1.9-2.4-5-3.7-9.3-3.7c-2.5,0-4.7,0.5-6.6,1.5c-1.9,1-3.4,2.5-4.5,4.4c-0.7,1.2-1.1,2.5-1.4,4.1
				c-0.3,1.5-0.4,4.2-0.4,8v21.2H490v-24.4c0-5-1-8.7-3.1-11.1c-2-2.4-5.2-3.6-9.4-3.6c-2.5,0-4.8,0.5-6.7,1.5
				c-1.9,1-3.4,2.5-4.5,4.4c-0.7,1.2-1.2,2.5-1.5,4.1c-0.3,1.5-0.4,4.2-0.4,8v21.2H459v-43.6h5.5v5c1.7-1.9,3.6-3.4,5.9-4.4
				c2.3-1,4.8-1.5,7.7-1.5c3.3,0,6.3,0.7,9,2.1C489.8,523.1,491.9,525,493.3,527.3z"/>
			<path d="M573.5,557.2c-1.7,2.5-4.1,4.5-7.1,5.9c-3,1.4-6.2,2.1-9.6,2.1c-6.4,0-11.7-2.2-16-6.6c-4.2-4.4-6.4-9.8-6.4-16.2
				c0-6.5,2.2-12,6.5-16.4c4.4-4.4,9.8-6.6,16.3-6.6c3.4,0,6.4,0.7,9.2,2.1c2.8,1.4,5.1,3.3,7,5.9v-7h5.5v43.6h-5.5V557.2z
				 M573.5,542c0-4.6-1.6-8.7-5-12.1c-3.3-3.4-7.1-5.2-11.4-5.2c-4.7,0-8.7,1.7-12,5.2c-3.3,3.5-4.9,7.7-4.9,12.8
				c0,4.9,1.6,9,4.9,12.3c3.3,3.3,7.2,5,11.8,5c4.4,0,8.3-1.8,11.6-5.3C571.9,551.2,573.5,547,573.5,542z M556.1,514.7h-3.6
				l8.3-13.9h6L556.1,514.7z"/>
			<path d="M597.7,564.1v-38h-8.3v-5.6h8.3v-14.1h5.6v14.1h8.3v5.6h-8.3v38H597.7z"/>
			<path d="M625.8,515.4h-5.6v-9h5.6V515.4z M620.2,564.1v-43.6h5.6v43.6H620.2z"/>
			<path d="M673.8,533.9c-1.7-3.2-3.8-5.5-6.3-7c-2.5-1.5-5.4-2.3-8.8-2.3c-4.5,0-8.3,1.7-11.4,5.1c-3.1,3.4-4.7,7.6-4.7,12.6
				c0,5,1.6,9.2,4.7,12.6c3.1,3.4,7,5.1,11.7,5.1c3.4,0,6.4-0.8,9-2.5c2.6-1.7,4.6-4,5.9-7h6.2c-1.7,4.7-4.3,8.4-8,11
				c-3.6,2.6-7.9,3.9-12.8,3.9c-6.3,0-11.7-2.2-16-6.7c-4.3-4.5-6.5-9.9-6.5-16.2c0-6.4,2.2-11.9,6.6-16.4c4.4-4.5,9.8-6.7,16.1-6.7
				c4.7,0,8.9,1.3,12.5,3.8c3.6,2.5,6.3,6.1,8.1,10.8H673.8z"/>
			<path d="M726.8,557.2c-1.7,2.5-4.1,4.5-7.1,5.9c-3,1.4-6.2,2.1-9.6,2.1c-6.4,0-11.7-2.2-16-6.6c-4.2-4.4-6.4-9.8-6.4-16.2
				c0-6.5,2.2-12,6.5-16.4c4.3-4.4,9.8-6.6,16.3-6.6c3.4,0,6.4,0.7,9.2,2.1c2.8,1.4,5.1,3.3,7,5.9v-7h5.5v43.6h-5.5V557.2z
				 M726.8,542c0-4.6-1.7-8.7-5-12.1c-3.3-3.4-7.1-5.2-11.4-5.2c-4.7,0-8.7,1.7-12,5.2c-3.3,3.5-4.9,7.7-4.9,12.8
				c0,4.9,1.7,9,4.9,12.3c3.3,3.3,7.2,5,11.8,5c4.4,0,8.3-1.8,11.6-5.3C725.2,551.2,726.8,547,726.8,542z"/>
			<path d="M743.3,550.4h5.8v0.2c0,2.7,0.8,5,2.3,6.8c1.6,1.8,3.5,2.7,5.8,2.7c2.2,0,4-0.7,5.5-2.1c1.5-1.4,2.2-3.1,2.2-5.2
				c0-2.1-0.6-3.8-1.7-5c-1.2-1.3-3.2-2.5-6.2-3.6c-4.8-1.7-8-3.5-9.5-5.3c-1.5-1.8-2.2-4.2-2.2-7.2c0-3.4,1.2-6.3,3.7-8.7
				c2.5-2.4,5.5-3.6,9-3.6c3.7,0,6.7,1.1,8.9,3.2c2.2,2.1,3.4,5.1,3.5,8.8h-6c-0.1-2.1-0.8-3.7-2-4.8c-1.2-1.1-2.8-1.7-4.8-1.7
				c-1.8,0-3.3,0.6-4.6,1.8c-1.2,1.2-1.8,2.8-1.8,4.6c0,1.3,0.2,2.4,0.7,3.3c0.5,0.9,1.3,1.7,2.5,2.4c1.1,0.7,2.6,1.3,4.6,1.9
				c2,0.6,3.4,1.1,4.1,1.3c2.7,1.2,4.7,2.7,6,4.6c1.3,1.9,1.9,4.4,1.9,7.4c0,3.8-1.3,6.9-3.9,9.3c-2.6,2.5-5.9,3.7-10,3.7
				c-4.1,0-7.4-1.3-9.9-4C744.8,558.5,743.5,554.9,743.3,550.4z"/>
		</g>
	</g>
	<g>
		<polygon class="st0" points="273,318.1 306.2,215.9 339.5,318.1 		"/>
		<polygon class="st1" points="339.5,318.1 480.1,215.9 252.5,50.4 198.7,215.9 306.2,215.9 		"/>
		<polygon class="st2" points="24.8,215.9 306.2,215.9 252.4,381.3 		"/>
		<polygon class="st3" points="252.4,381.3 111.8,483.5 24.8,215.9 		"/>
		<polygon class="st3" points="165.5,318.2 111.8,483.5 252.4,381.3 		"/>
		<path d="M482.3,212.8L254.7,47.4c-1-0.7-2.2-0.9-3.4-0.5c-1.1,0.4-2,1.3-2.4,2.4L196,212.1H24.8c-0.1,0-0.2,0-0.3,0
			c-0.3,0-0.6,0-0.9,0.1c-0.2,0.1-0.3,0.2-0.5,0.2c-0.2,0.1-0.4,0.2-0.6,0.3c-0.2,0.1-0.3,0.3-0.4,0.4c-0.1,0.1-0.3,0.3-0.4,0.4
			c-0.2,0.2-0.2,0.4-0.3,0.7c-0.1,0.1-0.1,0.2-0.2,0.4c0,0.1,0,0.3-0.1,0.4c-0.1,0.3-0.1,0.5-0.1,0.8c0,0.2,0.1,0.5,0.1,0.7
			c0,0.1,0,0.3,0.1,0.4l87,267.6c0.4,1.2,1.3,2,2.4,2.4c0.4,0.1,0.8,0.2,1.2,0.2c0.8,0,1.6-0.2,2.2-0.7l136.5-99.2l4.1-3
			c0.1-0.1,0.1-0.1,0.2-0.2c0.1-0.1,0.2-0.2,0.3-0.3c0.1-0.1,0.2-0.2,0.3-0.4c0.1-0.1,0.2-0.2,0.2-0.3c0.1-0.1,0.1-0.3,0.2-0.4
			c0-0.1,0.1-0.2,0.1-0.2l19.7-60.7l63.7,0c0,0,0,0,0,0c0,0,0.1,0,0.1,0c0.3,0,0.6-0.1,0.9-0.1c0.1,0,0.2-0.1,0.3-0.1
			c0.2-0.1,0.5-0.2,0.7-0.3c0.1,0,0.1-0.1,0.2-0.1l140.6-102.2c1-0.7,1.5-1.8,1.5-3C483.8,214.7,483.3,213.6,482.3,212.8z
			 M301.1,219.6l-50.6,155.6L41.9,223.6l-5.5-4H301.1z M240.1,385.7l-121.1,88l48.6-149.4l78.5,57.1L240.1,385.7z M31.9,225.7
			l129.2,93.9l-49.4,151.7L31.9,225.7z M306.2,228l25.7,79l2.4,7.3l-56.1,0L306.2,228z M341.4,312l-31.6-97.3c0,0,0-0.1-0.1-0.1
			c-0.1-0.3-0.3-0.6-0.5-0.9c0,0,0,0,0,0c0,0,0,0,0,0c-0.2-0.3-0.5-0.5-0.7-0.7c-0.1-0.1-0.2-0.1-0.2-0.2c-0.2-0.1-0.5-0.3-0.7-0.4
			c-0.1,0-0.2-0.1-0.3-0.1c-0.3-0.1-0.6-0.2-1-0.2c0,0,0,0-0.1,0H203.9l50.6-155.6l219.2,159.4L341.4,312z"/>
	</g>
</g>
</svg>
