<?xml version="1.0" encoding="UTF-8" standalone="no"?>
<!DOCTYPE svg PUBLIC "-//W3C//DTD SVG 1.1//EN" "http://www.w3.org/Graphics/SVG/1.1/DTD/svg11.dtd">
<svg width="100%" height="100%" viewBox="0 0 203 200" version="1.1" xmlns="http://www.w3.org/2000/svg" xmlns:xlink="http://www.w3.org/1999/xlink" xml:space="preserve" xmlns:serif="http://www.serif.com/" style="fill-rule:evenodd;clip-rule:evenodd;stroke-linecap:round;stroke-linejoin:bevel;">
    <g transform="matrix(1.33333,0,0,1.33333,-174.505,66.2731)">
        <g>
            <path d="M134.119,-29.477L136.675,9.861L162.94,22.817L161.023,-18.375L134.119,-29.477Z" style="fill:none;fill-rule:nonzero;stroke:black;stroke-width:0.9px;"/>
            <path d="M134.119,-29.477L197.546,-47.544L225.175,-38.426L161.023,-18.375" style="fill:none;fill-rule:nonzero;stroke:black;stroke-width:0.9px;stroke-linejoin:round;"/>
            <path d="M162.94,22.817L195.356,10.471L195.682,47.118L224.22,61.822L223.466,97.244L171.256,66.851L169.542,20.6" style="fill:none;fill-rule:nonzero;stroke:black;stroke-width:0.9px;stroke-linejoin:round;"/>
            <path d="M224.22,61.822L277.857,35.432L275.523,68.39" style="fill:none;fill-rule:nonzero;stroke:black;stroke-width:0.9px;stroke-linejoin:round;"/>
            <path d="M277.857,35.432L249.437,23.2L224.009,34.567L225.175,-38.426" style="fill:none;fill-rule:nonzero;stroke:black;stroke-width:0.9px;stroke-linejoin:round;"/>
            <path d="M275.523,68.39L223.466,97.244" style="fill:none;fill-rule:nonzero;stroke:black;stroke-width:0.9px;stroke-linejoin:round;"/>
            <path d="M195.356,10.471L195.356,-29.152L169.313,-39.085" style="fill:none;fill-rule:nonzero;stroke:black;stroke-width:0.9px;stroke-linejoin:round;"/>
            <path d="M162.94,22.817L224.51,-0.449" style="fill:none;fill-rule:nonzero;stroke:black;stroke-width:0.9px;stroke-linejoin:round;"/>
            <path d="M195.682,47.118L224.009,34.567" style="fill:none;fill-rule:nonzero;stroke:black;stroke-width:0.9px;stroke-linejoin:round;"/>
            <path d="M224.22,61.822L170.05,34.641" style="fill:none;fill-rule:nonzero;stroke:black;stroke-width:0.9px;stroke-linejoin:round;"/>
            <path d="M195.682,47.118L195.682,80.885" style="fill:none;fill-rule:nonzero;stroke:black;stroke-width:0.9px;stroke-linejoin:round;"/>
            <path d="M224.009,34.567L253.102,47.809L252.895,80.816" style="fill:none;fill-rule:nonzero;stroke:black;stroke-width:0.9px;stroke-linejoin:round;"/>
        </g>
    </g>
</svg>
