<svg height="104.4143" viewBox="0 0 119.48112 104.4143" width="119.48112" xmlns="http://www.w3.org/2000/svg" xmlns:xlink="http://www.w3.org/1999/xlink"><linearGradient id="a" gradientUnits="userSpaceOnUse" x1="5.062642" x2="66.190196" y1="54.762029" y2="54.762029"><stop offset="0" stop-color="#2d0703"/><stop offset="1" stop-color="#9d711e"/></linearGradient><radialGradient id="b" cx="50.205948" cy="-27.661079" gradientTransform="matrix(.71852784 -.06699475 .06097472 .65396205 15.689975 -6.287284)" gradientUnits="userSpaceOnUse" r="8.806275"><stop offset="0" stop-color="#feff0e"/><stop offset="1" stop-color="#ebcf14"/></radialGradient><g transform="matrix(1.3333333 0 0 -1.3333333 0 104.4143)"><g fill="none" stroke="#0f007c" stroke-width=".75" transform="matrix(1 0 0 -1 0 78.310722)"><path d="m17.402 17.062h22.527v22.816h-22.527z"/><path d="m39.93 17.062h22.527v22.816h-22.527z"/><path d="m62.457 17.062h22.527v22.816h-22.527z"/><path d="m62.457 39.879h22.527v22.816h-22.527z"/><path d="m17.402 39.879h22.527v22.816h-22.527z"/><path d="m39.93 39.879h22.527v22.816h-22.527z"/></g><g fill-rule="evenodd"><path d="m9.18 68.115h3.898c.195 0 .461 0 .461.282 0 .281-.266.281-.461.281h-3.898v3.914c0 .191 0 .461-.282.461-.273 0-.273-.27-.273-.461v-3.914h-3.914c-.199 0-.457 0-.457-.281 0-.282.258-.282.457-.282h3.914v-3.906c0-.199 0-.465.273-.465.282 0 .282.266.282.465z" fill="#2e3592"/><path d="m26.055 73.272v.187l-.004.008-.004.02v.015l-.008.031-.004.012-.008.012-.004.012-.023.023-.023.016-.012.004-.008.003-.004.004h-.008l-.007.004h-.016l-.008.004h-.008l-.011.004h-.086l-.016.004h-.055c-.867-.895-2.097-.895-2.543-.895v-.433c.282 0 1.102 0 1.828.363v-7.238c0-.504-.043-.668-1.296-.668h-.45v-.438c.493.047 1.703.047 2.262.047.563 0 1.773 0 2.266-.047v.438h-.446c-1.257 0-1.304.148-1.304.668z"/><path d="m33.055 73.272v.175l-.004.012v.008l-.004.02-.004.015v.016l-.004.015-.004.012-.008.012-.004.012-.015.015-.012.008-.008.008-.011.008-.012.004-.008.003-.004.004h-.008l-.011.004h-.012l-.008.004h-.012l-.007.004h-.09l-.012.004h-.059c-.867-.895-2.093-.895-2.543-.895v-.433c.282 0 1.106 0 1.829.363v-7.238c0-.504-.04-.668-1.297-.668h-.446v-.438c.489.047 1.703.047 2.258.047.563 0 1.777 0 2.27-.047v.438h-.45c-1.257 0-1.3.148-1.3.668z"/><path d="m54.598 73.123.007.02.012.011.008.016.012.016.008.008.007.011.008.016.004.012.008.011.004.008.008.012.023.07v.012l.004.016v.011l.004.016v.101l.004.024v.098h-3.395c-1.703 0-1.734.183-1.789.445h-.347l-.458-2.871h.344c.043.222.172 1.105.352 1.269.094.082 1.187.082 1.367.082h2.895c-.157-.222-1.258-1.75-1.567-2.207-1.258-1.883-1.719-3.828-1.719-5.254 0-.14 0-.765.645-.765.644 0 .644.625.644.765v.715c0 .766.039 1.539.153 2.293.051.317.25 1.52.863 2.387z"/><path d="m72.246 65.404 1.481 1.438c2.175 1.93 3.019 2.684 3.019 4.078 0 1.598-1.258 2.715-2.961 2.715-1.582 0-2.617-1.289-2.617-2.531 0-.782.699-.782.738-.782.242 0 .731.168.731.739 0 .363-.25.73-.742.73-.11 0-.137 0-.18-.015.32.91 1.074 1.425 1.887 1.425 1.269 0 1.871-1.136 1.871-2.281 0-1.117-.7-2.219-1.465-3.086l-2.68-2.992c-.16-.148-.16-.176-.16-.516h5.184l.394 2.434h-.351c-.071-.422-.165-1.035-.305-1.246-.102-.11-1.024-.11-1.328-.11z"/><path d="m8.488 49.85v.332c0 3.535 1.731 4.043 2.446 4.043.332 0 .921-.086 1.226-.563-.207 0-.765 0-.765-.629 0-.429.335-.64.64-.64.227 0 .645.125.645.668 0 .843-.618 1.511-1.774 1.511-1.793 0-3.676-1.804-3.676-4.89 0-3.731 1.622-4.723 2.918-4.723 1.551 0 2.879 1.313 2.879 3.156 0 1.774-1.242 3.118-2.793 3.118l-.015-.325c.226 0 .867 0 1.301-.867.25-.512.25-1.226.25-1.91 0-.668 0-1.371-.235-1.875-.422-.836-1.062-.906-1.387-.906-.878 0-1.296.836-1.378 1.047-.254.656-.254 1.773-.254 2.027 0 1.086.445 2.484 1.703 2.484l.015.325c-.949 0-1.464-.715-1.746-1.383z"/><path d="m25.191 54.209v.133l-.003.012v.043l-.004.007-.004.02v.02l-.004.011-.004.016-.004.012-.008.011-.004.012-.004.008-.011.008-.008.011-.012.008-.008.004-.011.008h-.012l-.004.004h-.008l-.008.004h-.015l-.008.004h-.008l-.012.004h-.019l-.008.003h-.129c-.867-.894-2.098-.894-2.543-.894v-.434c.281 0 1.102 0 1.828.364v-7.239c0-.504-.039-.668-1.297-.668h-.449v-.433c.492.043 1.707.043 2.266.043.558 0 1.769 0 2.262-.043v.433h-.446c-1.258 0-1.301.153-1.301.668z"/><path d="m34.734 53.776.008.015.012.016.012.012.007.015.012.012.008.012.004.011.015.024.004.011.008.012.004.008.016.047v.012l.004.011v.016l.004.012v.047l.003.015v.18h-3.39c-1.703 0-1.735.18-1.789.445h-.348l-.461-2.875h.348c.043.223.172 1.106.351 1.27.094.086 1.184.086 1.364.086h2.898c-.156-.227-1.258-1.75-1.57-2.211-1.258-1.883-1.719-3.828-1.719-5.254 0-.141 0-.766.645-.766.648 0 .648.625.648.766v.715c0 .765.039 1.539.148 2.293.055.32.25 1.519.864 2.386z"/><path d="m48.008 53.92v.137l-.004.008v.043l-.004.007-.004.02v.019l-.004.012-.004.016-.004.012-.007.011-.004.012-.004.008-.012.008-.008.011-.011.008-.012.004-.008.008h-.012l-.004.004h-.007l-.008.004h-.016l-.008.004h-.008l-.011.003h-.02l-.008.004h-.128c-.868-.894-2.098-.894-2.543-.894v-.434c.281 0 1.101 0 1.828.364v-7.235c0-.508-.039-.672-1.297-.672h-.449v-.433c.492.043 1.707.043 2.261.043.563 0 1.774 0 2.266-.043v.433h-.445c-1.258 0-1.301.153-1.301.672z"/><path d="m54.953 49.893.106.035.105.043.098.043.101.047.098.051.098.054.093.055.09.062.086.063.082.062.086.067.078.07.149.149.07.078.062.082.067.078.058.086.055.086.055.09.047.085.047.09.043.094.035.098.062.187.024.102.023.097.024.204.007.101.004.102c0 1.144-1.23 1.929-2.57 1.929-1.41 0-2.473-.839-2.473-1.898 0-.465.309-.731.715-.731.43 0 .707.309.707.715 0 .696-.656.696-.863.696.433.683 1.355.871 1.859.871.571 0 1.34-.309 1.34-1.567 0-.172-.031-.98-.394-1.593-.415-.672-.891-.711-1.239-.727-.113-.016-.445-.039-.547-.039-.109-.016-.211-.031-.211-.172 0-.148.102-.148.336-.148h.614c1.148 0 1.668-.953 1.668-2.325 0-1.898-.965-2.304-1.582-2.304-.602 0-1.649.238-2.133 1.062.484-.07.918.239.918.77 0 .5-.379.781-.785.781-.332 0-.782-.195-.782-.812 0-1.27 1.301-2.192 2.825-2.192 1.703 0 2.972 1.274 2.972 2.695 0 1.149-.879 2.235-2.328 2.528z"/><path d="m74.789 50.322.09.051.094.047.089.055.086.051.086.054.082.055.082.059.079.054.078.059.07.062.07.059.071.066.066.059.063.07.058.063.059.066.054.07.051.067.047.07.047.074.078.149.035.078.031.074.028.078.047.157.019.082.012.082.008.082.008.086v.086c0 1.289-1.243 2.085-2.516 2.085l-.008-.347c1.02 0 1.91-.731 1.91-1.738 0-.793-.547-1.465-1.383-1.954l-1.73 1.118c-.645.418-.703.894-.703 1.132 0 .852.91 1.442 1.906 1.442l.008.347c-1.395 0-2.523-1.035-2.523-2.335 0-.25.023-.879.609-1.54.156-.164.672-.515 1.023-.75l.321-.21 1.722-1.09c.391-.266 1.047-.688 1.047-1.535 0-1.036-1.047-1.762-2.199-1.762-1.199 0-2.203.867-2.203 2.023 0 .813.445 1.703 1.633 2.364l-.321.21c-.812-.406-2.011-1.191-2.011-2.574 0-1.48 1.421-2.414 2.894-2.414 1.574 0 2.902 1.164 2.902 2.653 0 .503-.152 1.136-.683 1.722-.27.293-.488.434-1.383.988z"/><path d="m70.406 30.733v.136l-.004.012v.051l-.004.019v.016l-.007.016v.011l-.008.016-.004.012-.008.011-.004.008-.015.016-.024.015-.012.004-.007.004h-.016l-.004.004-.008.004h-.008l-.011.004h-.039l-.008.004h-.059l-.011.004h-.059c-.867-.895-2.094-.895-2.539-.895v-.437c.281 0 1.101 0 1.824.367v-7.238c0-.504-.039-.672-1.297-.672h-.445v-.434c.488.047 1.703.047 2.262.047.562 0 1.773 0 2.261-.047v.434h-.445c-1.254 0-1.301.152-1.301.672z"/><path d="m79.727 26.26v.211l-.004.207-.008.211-.008.207-.012.211-.015.207-.024.207-.027.207-.031.203-.039.207-.043.199-.055.203-.063.204-.066.195-.078.195-.086.195c-.641 1.344-1.789 1.571-2.375 1.571-.836 0-1.859-.367-2.434-1.668-.449-.965-.519-2.055-.519-3.172 0-1.047.062-2.305.633-3.363.601-1.129 1.625-1.41 2.304-1.41v.304c-.539 0-1.371.352-1.621 1.692-.152.836-.152 2.121-.152 2.949 0 .89 0 1.812.113 2.566.266 1.664 1.309 1.789 1.66 1.789.461 0 1.387-.25 1.649-1.633.14-.781.14-1.847.14-2.722 0-1.051 0-2-.152-2.895-.211-1.324-1.008-1.746-1.637-1.746v-.304c.754 0 1.817.289 2.434 1.621.445.961.516 2.05.516 3.152z"/><path d="m5.848 42.477c-2.711 2.906 6.504 9.484 1.445 11.843-2.84 1.325 1.047 7.059 3.754 8.664 8.152 4.832 19.84-6.859 28.305-2.601 4.628 2.332 2.933 12.734 8.086 13.285 2.777.301 3.867-4.027 5.777-6.063 4.258-4.535 11.961-7.507 12.68-13.683.406-3.477-5.348-5.641-5.172-9.133.144-2.828 6.175-4.398 4.91-6.934-1.594-3.187-7.297-1.39-10.684-.289-3.004.977-4.351 5.766-7.511 5.778-3.985.015-5.626-6.422-9.532-7.219-8.945-1.828-17.484 5.766-26.57 6.641-1.824.175-4.238-1.625-5.488-.289z" fill="url(#a)" stroke="#ffdbb7" stroke-opacity=".344524" stroke-width=".54975" transform="matrix(1 0 0 -1 -1.11656 78.321447)"/><path d="m56.571164-20.947971c-.486871.461097-5.156903-1.921-5.819209-1.8161-.637846.101025-4.156676 3.794681-4.723904 3.485965-.588981-.320554.233409-5.498128-.07102-6.095602-.293186-.575409-4.89344-2.780613-4.775117-3.415477.122861-.659211 5.301158-1.47703 5.775317-1.951189.456646-.456648 1.132363-5.513195 1.772719-5.596847.664912-.08686 3.042887 4.585273 3.640362 4.889701.575409.293185 5.593279-.626729 5.870718-.04356.288078.605528-3.420551 4.310885-3.525449 4.973191-.101024.637846 2.324473 5.125854 1.855584 5.569922z" fill="url(#b)" stroke="#f09e00" stroke-linecap="round" stroke-linejoin="round" stroke-width=".525" transform="matrix(.98717428 -.15964633 -.15964633 -.98717428 -3.793218 8.234073)"/></g></g></svg>